# File created by Blade
# Date/Time:  Tue Apr 07 20:49:23 2015
# Frame Rate: 120.000 fps
#------------------------------------------------------
:FULLY-SPECIFIED
:DEGREES
350
root 4.817464 33.325392 -8.305899 -66.553449 73.877387 -101.151578
Spine -22.921517 -18.891822 20.262126
Head 3.881042 9.956330 13.316013
LeftShoulder -17.035974 47.566745 16.809834
LeftArm 49.718405 -10.807273 -87.263493
LeftForeArm 8.304898 -0.000000 27.980102
LeftHand 6.961082 0.000000 12.933754
LeftHandThumb1 -26.253704 0.000000 33.147579
RightShoulder -18.185550 -12.474836 -8.717304
RightArm -12.765783 42.855672 70.079738
RightForeArm 77.422008 -0.000000 0.625141
RightHand 8.391743 -0.000000 18.895731
RightHandThumb1 -24.326973 -0.000000 -32.862282
LeftUpLeg -38.174515 -9.000203 16.965484
LeftLeg 16.264259 -0.000000 -0.000000
LeftFoot -6.629143 21.502290 -0.004072
LeftToeBase -18.223898 -0.000000 0.000000
RightUpLeg -15.117228 13.979662 -19.350841
RightLeg 123.660204 -0.000000 -0.000000
RightFoot 46.380630 5.778928 0.097168
RightToeBase 8.404991 -0.000000 -0.000000
351
root 4.813780 33.315325 -8.310333 -65.867842 73.842078 -100.429351
Spine -22.920601 -18.744937 20.279382
Head 4.121424 10.015799 13.163050
LeftShoulder -17.159055 47.624082 16.722274
LeftArm 49.691876 -11.065431 -87.248904
LeftForeArm 8.366199 -0.000000 28.001377
LeftHand 7.030857 -0.000000 12.921969
LeftHandThumb1 -26.253704 0.000000 33.147579
RightShoulder -18.231414 -12.471750 -8.659684
RightArm -12.628391 42.920985 70.033268
RightForeArm 77.665786 -0.000000 0.344283
RightHand 8.333889 -0.000000 19.004023
RightHandThumb1 -24.326973 -0.000000 -32.862282
LeftUpLeg -37.750084 -8.851710 16.899387
LeftLeg 15.637459 -0.000000 -0.000000
LeftFoot -7.012658 21.661221 -0.017556
LeftToeBase -17.145921 -0.000000 0.000000
RightUpLeg -15.011328 14.018568 -19.329743
RightLeg 123.768437 -0.000000 -0.000000
RightFoot 46.326309 5.672504 0.158650
RightToeBase 8.092775 -0.000000 -0.000000
352
root 4.808799 33.298343 -8.314267 -65.210022 73.816188 -99.727981
Spine -22.909842 -18.624711 20.287778
Head 4.328564 10.094534 13.019583
LeftShoulder -17.256944 47.647521 16.677252
LeftArm 49.601479 -11.341827 -87.216915
LeftForeArm 8.376336 -0.000000 28.047139
LeftHand 7.003281 -0.000000 12.954645
LeftHandThumb1 -26.253704 0.000000 33.147579
RightShoulder -18.296034 -12.438755 -8.642129
RightArm -12.508704 42.966489 70.004407
RightForeArm 77.937864 -0.000000 0.087084
RightHand 8.298822 0.000000 19.269910
RightHandThumb1 -24.326973 -0.000000 -32.862282
LeftUpLeg -37.319828 -8.732661 16.844209
LeftLeg 15.037520 -0.000000 -0.000000
LeftFoot -7.502184 21.760328 -0.146930
LeftToeBase -16.367541 -0.000000 0.000000
RightUpLeg -14.864307 14.044137 -19.331378
RightLeg 123.919557 -0.000000 -0.000000
RightFoot 46.290729 5.569940 0.249697
RightToeBase 7.921009 -0.000000 -0.000000
353
root 4.805886 33.275567 -8.316062 -64.670985 73.778053 -99.136146
Spine -22.894662 -18.543167 20.325660
Head 4.483384 10.219132 12.839010
LeftShoulder -17.418066 47.650953 16.588013
LeftArm 49.539493 -11.623008 -87.153017
LeftForeArm 8.533630 -0.000000 28.029916
LeftHand 7.019865 -0.000000 12.761209
LeftHandThumb1 -26.253704 0.000000 33.147579
RightShoulder -18.382887 -12.355840 -8.638566
RightArm -12.438501 43.059549 69.921629
RightForeArm 78.233197 0.000000 -0.172036
RightHand 8.212781 -0.000000 19.144950
RightHandThumb1 -24.326973 -0.000000 -32.862282
LeftUpLeg -36.871503 -8.615721 16.795018
LeftLeg 14.455751 -0.000000 -0.000000
LeftFoot -7.955395 21.844963 -0.208299
LeftToeBase -15.893964 -0.000000 0.000000
RightUpLeg -14.634980 14.030222 -19.301184
RightLeg 124.086370 -0.000000 -0.000000
RightFoot 46.327676 5.705419 0.080439
RightToeBase 7.333151 -0.000000 -0.000000
354
root 4.798537 33.249427 -8.317288 -64.133055 73.756101 -98.598082
Spine -22.942882 -18.471027 20.367015
Head 4.643930 10.324390 12.673554
LeftShoulder -17.525499 47.649606 16.542640
LeftArm 49.444387 -11.930439 -87.069522
LeftForeArm 8.515354 -0.000000 27.993890
LeftHand 7.024762 -0.000000 12.789361
LeftHandThumb1 -26.253704 0.000000 33.147579
RightShoulder -18.453132 -12.292673 -8.687125
RightArm -12.445135 43.286366 69.816952
RightForeArm 78.474884 -0.000000 -0.427085
RightHand 8.161053 -0.000000 19.114221
RightHandThumb1 -24.326973 -0.000000 -32.862282
LeftUpLeg -36.531594 -8.480877 16.712995
LeftLeg 13.949681 -0.000000 -0.000000
LeftFoot -8.214557 21.966322 -0.048057
LeftToeBase -15.504922 -0.000000 0.000000
RightUpLeg -14.445707 13.971200 -19.310843
RightLeg 124.301337 -0.000000 -0.000000
RightFoot 46.360983 5.657518 0.140578
RightToeBase 7.296684 -0.000000 -0.000000
